<?xml version="1.0" encoding="UTF-8"?>
<svg id="Layer_2" data-name="Layer 2" xmlns="http://www.w3.org/2000/svg" viewBox="0 0 191.52 76.88">
  <defs>
    <style>
      .cls-1 {
        fill: #393e82;
      }
    </style>
  </defs>
  <g id="Layer_1-2" data-name="Layer 1">
    <g>
      <path class="cls-1" d="M187.91,35.09l-.23-.18c-6.73-5.31-16.48-7.06-25.46-4.58-3.92,1.09-7.25,3.23-10.48,5.31-3.39,2.19-6.59,4.25-10.36,5.1-8.71,1.97-14.15-1.48-19.91-5.13-4.26-2.7-8.67-5.5-14.57-6.22-10.08-1.24-16.22,2.32-22.17,5.75-5.64,3.27-10.98,6.35-19.65,5.74-5.36-.38-8.98-2.79-12.81-5.34-3.04-2.03-6.19-4.13-10.31-5.23-5.07-1.36-12.14-1.41-17.6-.13-4.44,1.04-7.89,3.47-11.22,5.82-3.64,2.56-7.07,4.98-11.65,5.64l-.61.09-.19.59c-.7,2.12-.52,3.64.54,4.51,2.54,2.08,8.89-1.25,10.77-2.32,2.2-1.25,3.99-2.54,5.57-3.68,3.74-2.7,6.7-4.84,13.08-5.3,8.4-.61,13.43,2.51,18.73,5.8,4.64,2.89,9.44,5.87,16.62,6.24.58.03,1.14.04,1.69.04,8.33,0,13.64-3.31,18.78-6.53,4.2-2.62,8.17-5.1,13.59-5.56,7.7-.65,12.8,2.41,18.19,5.67,5.71,3.45,11.62,7.01,20.89,6.29,6.33-.49,11.25-3.53,16.02-6.48,7.29-4.5,14.17-8.76,25.36-3.05.64.33,1.5,1.01,2.4,1.74,2.43,1.96,5.46,4.4,7.66,2.22.63-.63.95-1.38.9-2.19-.11-1.93-2.2-3.56-3.58-4.64Z"/>
      <path class="cls-1" d="M6.58,17.56c3.49-.74,6.51-2.84,9.71-5.07,2.93-2.04,5.97-4.16,9.4-5.12,11.42-3.21,17.45.54,23.82,4.52,4.76,2.97,9.69,6.04,17.02,6.47.58.03,1.15.05,1.71.05,7.85,0,13.07-3.26,18.14-6.42,4.27-2.66,8.29-5.17,13.72-5.65,7.66-.67,12.88,2.42,18.41,5.69,5.87,3.47,11.95,7.06,21.17,6.24,6.5-.58,11.03-3.54,15.42-6.41,6.27-4.1,12.18-7.97,23.39-4.03,1.47.52,3.85,2.23,5.58,3.47,1.77,1.27,2.41,1.72,2.93,1.81,1.86.33,3.37-.23,4.04-1.49.69-1.29.27-2.96-1.08-4.36-5.31-5.52-16.54-7.94-24.31-7.09-5.53.61-9.64,3.37-13.62,6.04-5.64,3.79-10.97,7.37-20.24,5.22-4.94-1.14-8.21-3.33-11.38-5.45-4.94-3.3-10.04-6.71-21.02-5.83-6.51.52-11.08,3.41-15.5,6.2-5.73,3.62-11.14,7.03-20.48,5.08-4.2-.88-6.59-2.55-9.36-4.48-1.51-1.05-3.07-2.14-5.05-3.19C42.89.52,36.4-.57,28.55.31c-6.78.76-10.33,3.24-14.1,5.87-1.79,1.25-3.63,2.54-5.96,3.76-.59.31-1.94.78-3.26,1.23C1.48,12.46.49,12.88.22,13.69c-.5,1.47-.05,2.4.41,2.93,1.61,1.8,5.51,1.04,5.95.94Z"/>
      <path class="cls-1" d="M191.31,68.7c-4.03-7.48-14.91-10.75-23.56-10.11-6.5.48-11.37,3.44-16.08,6.3-6.03,3.66-11.73,7.12-20.39,4.98-4.76-1.17-8-3.34-11.13-5.43-4.94-3.3-10.04-6.71-20.76-5.86-6.53.52-11.06,3.39-15.43,6.17-5.78,3.67-11.23,7.13-21.08,5.11-4.15-.85-7.21-2.92-10.45-5.1-3.18-2.15-6.47-4.37-10.88-5.37-3.74-.85-8.17-1.07-12.45-.63-7.41.76-10.75,3.24-14.29,5.87-1.94,1.44-3.94,2.93-6.78,4.26-.62.29-1.65.55-2.65.81-2.54.65-4.94,1.26-5.26,3.04-.32,1.8.36,2.72.99,3.18,2.89,2.11,10.61-1.94,10.94-2.12,1.67-.89,3.17-2.03,4.63-3.14,1.77-1.34,3.43-2.61,5.37-3.46,12.68-5.56,19.54-1.39,26.79,3.03,4.93,3.01,10.04,6.12,17.18,6.56,9.2.58,15.09-2.96,20.79-6.37,5.44-3.26,10.58-6.34,18.33-5.64,5.12.46,8.93,2.98,12.96,5.65,3.36,2.23,6.84,4.53,11.16,5.56,2.61.62,4.98.89,7.16.89,7.49,0,12.72-3.22,17.81-6.35,5.3-3.26,10.31-6.34,17.72-5.75,3.41.27,7.11,1.55,10.42,3.6.5.31,1.09.81,1.71,1.34,1.52,1.31,3.25,2.79,4.97,2.35,1.02-.26,1.78-1.09,2.33-2.55l.16-.43-.22-.4Z"/>
    </g>
  </g>
</svg>